<mxfile host="app.diagrams.net" agent="Mozilla/5.0 (Windows NT 10.0; Win64; x64) AppleWebKit/537.36 (KHTML, like Gecko) Chrome/133.0.0.0 Safari/537.36" version="24.8.8">
  <diagram id="C5RBs43oDa-KdzZeNtuy" name="Page-1">
    <mxGraphModel dx="1067" dy="438" grid="1" gridSize="10" guides="1" tooltips="1" connect="1" arrows="1" fold="1" page="1" pageScale="1" pageWidth="827" pageHeight="1169" math="0" shadow="0">
      <root>
        <mxCell id="WIyWlLk6GJQsqaUBKTNV-0" />
        <mxCell id="WIyWlLk6GJQsqaUBKTNV-1" parent="WIyWlLk6GJQsqaUBKTNV-0" />
        <mxCell id="WIyWlLk6GJQsqaUBKTNV-3" value="INICIO" style="rounded=1;whiteSpace=wrap;html=1;fontSize=12;glass=0;strokeWidth=1;shadow=0;arcSize=50;" parent="WIyWlLk6GJQsqaUBKTNV-1" vertex="1">
          <mxGeometry x="320" y="110" width="120" height="40" as="geometry" />
        </mxCell>
        <mxCell id="WIyWlLk6GJQsqaUBKTNV-5" value="G2V" style="edgeStyle=orthogonalEdgeStyle;rounded=0;html=1;jettySize=auto;orthogonalLoop=1;fontSize=11;endArrow=block;endFill=0;endSize=8;strokeWidth=1;shadow=0;labelBackgroundColor=none;entryX=0.5;entryY=0;entryDx=0;entryDy=0;" parent="WIyWlLk6GJQsqaUBKTNV-1" source="WIyWlLk6GJQsqaUBKTNV-3" target="WIyWlLk6GJQsqaUBKTNV-7" edge="1">
          <mxGeometry y="20" relative="1" as="geometry">
            <mxPoint as="offset" />
            <mxPoint x="430.00212121212127" y="240.00969696969693" as="sourcePoint" />
            <mxPoint x="395" y="280" as="targetPoint" />
            <Array as="points">
              <mxPoint x="380" y="180" />
              <mxPoint x="380" y="180" />
            </Array>
          </mxGeometry>
        </mxCell>
        <mxCell id="gNwy0mN7Eim3LWL15WjO-10" value="" style="edgeStyle=orthogonalEdgeStyle;rounded=0;orthogonalLoop=1;jettySize=auto;html=1;" edge="1" parent="WIyWlLk6GJQsqaUBKTNV-1" source="WIyWlLk6GJQsqaUBKTNV-7" target="gNwy0mN7Eim3LWL15WjO-9">
          <mxGeometry relative="1" as="geometry" />
        </mxCell>
        <mxCell id="WIyWlLk6GJQsqaUBKTNV-7" value="Detectar los parámetros de la batería EV" style="rounded=1;whiteSpace=wrap;html=1;fontSize=12;glass=0;strokeWidth=1;shadow=0;arcSize=0;" parent="WIyWlLk6GJQsqaUBKTNV-1" vertex="1">
          <mxGeometry x="265" y="210" width="230" height="40" as="geometry" />
        </mxCell>
        <mxCell id="gNwy0mN7Eim3LWL15WjO-12" value="" style="edgeStyle=orthogonalEdgeStyle;rounded=0;orthogonalLoop=1;jettySize=auto;html=1;" edge="1" parent="WIyWlLk6GJQsqaUBKTNV-1" source="gNwy0mN7Eim3LWL15WjO-9" target="gNwy0mN7Eim3LWL15WjO-11">
          <mxGeometry relative="1" as="geometry" />
        </mxCell>
        <mxCell id="gNwy0mN7Eim3LWL15WjO-13" value="NO" style="edgeLabel;html=1;align=center;verticalAlign=middle;resizable=0;points=[];" vertex="1" connectable="0" parent="gNwy0mN7Eim3LWL15WjO-12">
          <mxGeometry x="-0.1974" y="2" relative="1" as="geometry">
            <mxPoint y="-13" as="offset" />
          </mxGeometry>
        </mxCell>
        <mxCell id="gNwy0mN7Eim3LWL15WjO-15" value="" style="edgeStyle=orthogonalEdgeStyle;rounded=0;orthogonalLoop=1;jettySize=auto;html=1;" edge="1" parent="WIyWlLk6GJQsqaUBKTNV-1" source="gNwy0mN7Eim3LWL15WjO-9" target="gNwy0mN7Eim3LWL15WjO-14">
          <mxGeometry relative="1" as="geometry" />
        </mxCell>
        <mxCell id="gNwy0mN7Eim3LWL15WjO-18" value="SI" style="edgeLabel;html=1;align=center;verticalAlign=middle;resizable=0;points=[];" vertex="1" connectable="0" parent="gNwy0mN7Eim3LWL15WjO-15">
          <mxGeometry x="-0.1235" y="1" relative="1" as="geometry">
            <mxPoint y="-15" as="offset" />
          </mxGeometry>
        </mxCell>
        <mxCell id="gNwy0mN7Eim3LWL15WjO-9" value="Si&amp;nbsp;&lt;div&gt;&lt;font style=&quot;font-size: 11px;&quot;&gt;&amp;nbsp;&lt;/font&gt;&lt;span style=&quot;background-color: initial;&quot;&gt;&lt;b&gt;V&lt;/b&gt;&lt;/span&gt;&lt;sub style=&quot;background-color: initial;&quot;&gt;&lt;b&gt;batt&lt;/b&gt;&amp;nbsp;&lt;/sub&gt;&lt;span style=&quot;background-color: initial; font-size: 11px;&quot;&gt;&amp;lt;&amp;nbsp; &lt;b&gt;V&lt;/b&gt;&lt;/span&gt;&lt;sub style=&quot;background-color: initial; font-size: 11px;&quot;&gt;&lt;b&gt;battMax&lt;/b&gt;&lt;/sub&gt;&lt;/div&gt;" style="rhombus;whiteSpace=wrap;html=1;rounded=1;glass=0;strokeWidth=1;shadow=0;arcSize=0;" vertex="1" parent="WIyWlLk6GJQsqaUBKTNV-1">
          <mxGeometry x="312.5" y="290" width="135" height="110" as="geometry" />
        </mxCell>
        <mxCell id="gNwy0mN7Eim3LWL15WjO-20" value="" style="edgeStyle=orthogonalEdgeStyle;rounded=0;orthogonalLoop=1;jettySize=auto;html=1;" edge="1" parent="WIyWlLk6GJQsqaUBKTNV-1" source="gNwy0mN7Eim3LWL15WjO-11" target="gNwy0mN7Eim3LWL15WjO-19">
          <mxGeometry relative="1" as="geometry" />
        </mxCell>
        <mxCell id="gNwy0mN7Eim3LWL15WjO-11" value="Modo CV" style="whiteSpace=wrap;html=1;rounded=1;glass=0;strokeWidth=1;shadow=0;arcSize=0;" vertex="1" parent="WIyWlLk6GJQsqaUBKTNV-1">
          <mxGeometry x="495" y="420" width="120" height="60" as="geometry" />
        </mxCell>
        <mxCell id="gNwy0mN7Eim3LWL15WjO-33" value="" style="edgeStyle=orthogonalEdgeStyle;rounded=0;orthogonalLoop=1;jettySize=auto;html=1;" edge="1" parent="WIyWlLk6GJQsqaUBKTNV-1" source="gNwy0mN7Eim3LWL15WjO-14" target="gNwy0mN7Eim3LWL15WjO-32">
          <mxGeometry relative="1" as="geometry" />
        </mxCell>
        <mxCell id="gNwy0mN7Eim3LWL15WjO-14" value="Modo CC" style="whiteSpace=wrap;html=1;rounded=1;glass=0;strokeWidth=1;shadow=0;arcSize=0;" vertex="1" parent="WIyWlLk6GJQsqaUBKTNV-1">
          <mxGeometry x="120" y="420" width="120" height="60" as="geometry" />
        </mxCell>
        <mxCell id="gNwy0mN7Eim3LWL15WjO-22" value="" style="edgeStyle=orthogonalEdgeStyle;rounded=0;orthogonalLoop=1;jettySize=auto;html=1;" edge="1" parent="WIyWlLk6GJQsqaUBKTNV-1" source="gNwy0mN7Eim3LWL15WjO-19" target="gNwy0mN7Eim3LWL15WjO-21">
          <mxGeometry relative="1" as="geometry" />
        </mxCell>
        <mxCell id="gNwy0mN7Eim3LWL15WjO-19" value="Ajustar &lt;b&gt;D&lt;/b&gt;&lt;span style=&quot;font-size: 10px;&quot;&gt;&lt;b&gt;buck&lt;/b&gt;&amp;nbsp;&lt;/span&gt;para mantener &lt;b&gt;V&lt;/b&gt;&lt;span style=&quot;font-size: 10px;&quot;&gt;&lt;b&gt;batt&lt;/b&gt;&amp;nbsp;&lt;/span&gt;constante&amp;nbsp;" style="whiteSpace=wrap;html=1;rounded=1;glass=0;strokeWidth=1;shadow=0;arcSize=0;" vertex="1" parent="WIyWlLk6GJQsqaUBKTNV-1">
          <mxGeometry x="495" y="530" width="120" height="60" as="geometry" />
        </mxCell>
        <mxCell id="gNwy0mN7Eim3LWL15WjO-28" value="" style="edgeStyle=orthogonalEdgeStyle;rounded=0;orthogonalLoop=1;jettySize=auto;html=1;" edge="1" parent="WIyWlLk6GJQsqaUBKTNV-1" source="gNwy0mN7Eim3LWL15WjO-21" target="gNwy0mN7Eim3LWL15WjO-27">
          <mxGeometry relative="1" as="geometry" />
        </mxCell>
        <mxCell id="gNwy0mN7Eim3LWL15WjO-29" value="SI" style="edgeLabel;html=1;align=center;verticalAlign=middle;resizable=0;points=[];" vertex="1" connectable="0" parent="gNwy0mN7Eim3LWL15WjO-28">
          <mxGeometry x="-0.2985" relative="1" as="geometry">
            <mxPoint x="15" y="2" as="offset" />
          </mxGeometry>
        </mxCell>
        <mxCell id="gNwy0mN7Eim3LWL15WjO-30" style="edgeStyle=orthogonalEdgeStyle;rounded=0;orthogonalLoop=1;jettySize=auto;html=1;entryX=1;entryY=0.5;entryDx=0;entryDy=0;exitX=1;exitY=0.5;exitDx=0;exitDy=0;" edge="1" parent="WIyWlLk6GJQsqaUBKTNV-1" source="gNwy0mN7Eim3LWL15WjO-21" target="gNwy0mN7Eim3LWL15WjO-11">
          <mxGeometry relative="1" as="geometry">
            <Array as="points">
              <mxPoint x="670" y="685" />
              <mxPoint x="670" y="450" />
            </Array>
          </mxGeometry>
        </mxCell>
        <mxCell id="gNwy0mN7Eim3LWL15WjO-31" value="NO" style="edgeLabel;html=1;align=center;verticalAlign=middle;resizable=0;points=[];" vertex="1" connectable="0" parent="gNwy0mN7Eim3LWL15WjO-30">
          <mxGeometry x="-0.789" y="1" relative="1" as="geometry">
            <mxPoint x="-4" y="-9" as="offset" />
          </mxGeometry>
        </mxCell>
        <mxCell id="gNwy0mN7Eim3LWL15WjO-21" value="Si&lt;div&gt;&amp;nbsp;&lt;span style=&quot;background-color: initial;&quot;&gt;&lt;b&gt;I&lt;/b&gt;&lt;/span&gt;&lt;sub style=&quot;background-color: initial;&quot;&gt;&lt;b&gt;batt&lt;/b&gt;&amp;nbsp;&lt;/sub&gt;&lt;span style=&quot;background-color: initial;&quot;&gt;&amp;lt;=&amp;nbsp;&lt;/span&gt;&lt;span style=&quot;background-color: initial;&quot;&gt;&lt;b&gt;I&lt;span style=&quot;font-size: 10px;&quot;&gt;preset&lt;/span&gt;&lt;/b&gt;&lt;/span&gt;&lt;/div&gt;" style="rhombus;whiteSpace=wrap;html=1;rounded=1;glass=0;strokeWidth=1;shadow=0;arcSize=0;" vertex="1" parent="WIyWlLk6GJQsqaUBKTNV-1">
          <mxGeometry x="496.25" y="632.5" width="117.5" height="105" as="geometry" />
        </mxCell>
        <mxCell id="gNwy0mN7Eim3LWL15WjO-27" value="FIN" style="rounded=1;whiteSpace=wrap;html=1;glass=0;strokeWidth=1;shadow=0;arcSize=50;" vertex="1" parent="WIyWlLk6GJQsqaUBKTNV-1">
          <mxGeometry x="495" y="790" width="120" height="60" as="geometry" />
        </mxCell>
        <mxCell id="gNwy0mN7Eim3LWL15WjO-35" value="" style="edgeStyle=orthogonalEdgeStyle;rounded=0;orthogonalLoop=1;jettySize=auto;html=1;" edge="1" parent="WIyWlLk6GJQsqaUBKTNV-1" source="gNwy0mN7Eim3LWL15WjO-32" target="gNwy0mN7Eim3LWL15WjO-34">
          <mxGeometry relative="1" as="geometry" />
        </mxCell>
        <mxCell id="gNwy0mN7Eim3LWL15WjO-32" value="Ajustar&amp;nbsp;&lt;b&gt;D&lt;/b&gt;&lt;span style=&quot;font-size: 10px;&quot;&gt;&lt;b&gt;buck&amp;nbsp;&lt;/b&gt;&lt;/span&gt;para mantener&amp;nbsp;&lt;div&gt;&lt;span style=&quot;background-color: initial;&quot;&gt;&lt;b&gt;I&lt;/b&gt;&lt;/span&gt;&lt;sub style=&quot;background-color: initial;&quot;&gt;&lt;b&gt;batt&amp;nbsp;&lt;/b&gt;&lt;/sub&gt;constante&lt;/div&gt;" style="whiteSpace=wrap;html=1;rounded=1;glass=0;strokeWidth=1;shadow=0;arcSize=0;" vertex="1" parent="WIyWlLk6GJQsqaUBKTNV-1">
          <mxGeometry x="120" y="530" width="120" height="60" as="geometry" />
        </mxCell>
        <mxCell id="gNwy0mN7Eim3LWL15WjO-37" style="edgeStyle=orthogonalEdgeStyle;rounded=0;orthogonalLoop=1;jettySize=auto;html=1;entryX=0;entryY=0.25;entryDx=0;entryDy=0;" edge="1" parent="WIyWlLk6GJQsqaUBKTNV-1" source="gNwy0mN7Eim3LWL15WjO-34" target="gNwy0mN7Eim3LWL15WjO-11">
          <mxGeometry relative="1" as="geometry">
            <mxPoint x="350" y="440" as="targetPoint" />
            <Array as="points">
              <mxPoint x="300" y="685" />
              <mxPoint x="300" y="435" />
            </Array>
          </mxGeometry>
        </mxCell>
        <mxCell id="gNwy0mN7Eim3LWL15WjO-39" value="SI" style="edgeLabel;html=1;align=center;verticalAlign=middle;resizable=0;points=[];" vertex="1" connectable="0" parent="gNwy0mN7Eim3LWL15WjO-37">
          <mxGeometry x="-0.8526" y="-3" relative="1" as="geometry">
            <mxPoint x="-17" y="-19" as="offset" />
          </mxGeometry>
        </mxCell>
        <mxCell id="gNwy0mN7Eim3LWL15WjO-34" value="Si&amp;nbsp;&lt;div&gt;&lt;span style=&quot;background-color: initial;&quot;&gt;&lt;b&gt;V&lt;/b&gt;&lt;/span&gt;&lt;sub style=&quot;background-color: initial;&quot;&gt;&lt;b&gt;batt&lt;/b&gt;&amp;nbsp;&amp;gt;=&lt;/sub&gt;&lt;span style=&quot;background-color: initial; font-size: 11px;&quot;&gt;&lt;b&gt;V&lt;/b&gt;&lt;/span&gt;&lt;sub style=&quot;background-color: initial; font-size: 11px;&quot;&gt;&lt;b&gt;battMax&lt;/b&gt;&lt;/sub&gt;&lt;/div&gt;" style="rhombus;whiteSpace=wrap;html=1;rounded=1;glass=0;strokeWidth=1;shadow=0;arcSize=0;" vertex="1" parent="WIyWlLk6GJQsqaUBKTNV-1">
          <mxGeometry x="120" y="630" width="120" height="110" as="geometry" />
        </mxCell>
        <mxCell id="gNwy0mN7Eim3LWL15WjO-36" style="edgeStyle=orthogonalEdgeStyle;rounded=0;orthogonalLoop=1;jettySize=auto;html=1;entryX=0.022;entryY=0.395;entryDx=0;entryDy=0;entryPerimeter=0;" edge="1" parent="WIyWlLk6GJQsqaUBKTNV-1" source="gNwy0mN7Eim3LWL15WjO-34" target="gNwy0mN7Eim3LWL15WjO-14">
          <mxGeometry relative="1" as="geometry">
            <Array as="points">
              <mxPoint x="80" y="685" />
              <mxPoint x="80" y="444" />
            </Array>
          </mxGeometry>
        </mxCell>
        <mxCell id="gNwy0mN7Eim3LWL15WjO-38" value="NO" style="edgeLabel;html=1;align=center;verticalAlign=middle;resizable=0;points=[];" vertex="1" connectable="0" parent="gNwy0mN7Eim3LWL15WjO-36">
          <mxGeometry x="-0.8452" relative="1" as="geometry">
            <mxPoint x="5" y="-15" as="offset" />
          </mxGeometry>
        </mxCell>
      </root>
    </mxGraphModel>
  </diagram>
</mxfile>
